<mxfile host="65bd71144e">
    <diagram id="Kps7navCQL6_qCC5lj_E" name="第 1 页">
        <mxGraphModel dx="2437" dy="1319" grid="0" gridSize="10" guides="0" tooltips="1" connect="0" arrows="1" fold="1" page="0" pageScale="1" pageWidth="827" pageHeight="1169" math="1" shadow="0">
            <root>
                <mxCell id="0"/>
                <mxCell id="1" parent="0"/>
                <mxCell id="HfRskoNeigtXfyF8NNte-6" value="" style="endArrow=classic;html=1;rounded=0;fontSize=18;" parent="1" edge="1">
                    <mxGeometry width="50" height="50" relative="1" as="geometry">
                        <mxPoint x="153" y="766" as="sourcePoint"/>
                        <mxPoint x="740" y="766" as="targetPoint"/>
                    </mxGeometry>
                </mxCell>
                <mxCell id="HfRskoNeigtXfyF8NNte-7" value="" style="endArrow=classic;html=1;rounded=0;fontSize=18;" parent="1" edge="1">
                    <mxGeometry width="50" height="50" relative="1" as="geometry">
                        <mxPoint x="380" y="987" as="sourcePoint"/>
                        <mxPoint x="380" y="486" as="targetPoint"/>
                    </mxGeometry>
                </mxCell>
                <mxCell id="HfRskoNeigtXfyF8NNte-32" value="向量加法和数量乘" parent="0"/>
                <mxCell id="HfRskoNeigtXfyF8NNte-33" value="&lt;font style=&quot;font-size: 10px;&quot;&gt;`vec v =&amp;nbsp; [[a],[b]] `&lt;/font&gt;" style="text;html=1;strokeColor=none;fillColor=none;align=center;verticalAlign=middle;whiteSpace=wrap;rounded=0;fontSize=18;" parent="HfRskoNeigtXfyF8NNte-32" vertex="1">
                    <mxGeometry x="380" y="686" width="97" height="50" as="geometry"/>
                </mxCell>
                <mxCell id="HfRskoNeigtXfyF8NNte-34" value="" style="endArrow=classic;html=1;rounded=0;fontSize=18;fillColor=#e1d5e7;strokeColor=#9673a6;" parent="HfRskoNeigtXfyF8NNte-32" edge="1">
                    <mxGeometry width="50" height="50" relative="1" as="geometry">
                        <mxPoint x="380" y="766" as="sourcePoint"/>
                        <mxPoint x="460" y="526" as="targetPoint"/>
                    </mxGeometry>
                </mxCell>
                <mxCell id="HfRskoNeigtXfyF8NNte-35" value="&lt;font color=&quot;#ffffff&quot; style=&quot;font-size: 10px;&quot;&gt;`vec n = k vec v = k[[a],[b]] = [[ka],[kb]]`&lt;/font&gt;" style="edgeLabel;html=1;align=center;verticalAlign=middle;resizable=0;points=[];fontSize=12;fontColor=#E6D0DE;labelBackgroundColor=none;" parent="HfRskoNeigtXfyF8NNte-34" vertex="1" connectable="0">
                    <mxGeometry x="0.5464" y="1" relative="1" as="geometry">
                        <mxPoint x="39" y="-4" as="offset"/>
                    </mxGeometry>
                </mxCell>
                <mxCell id="HfRskoNeigtXfyF8NNte-36" value="" style="endArrow=classic;html=1;rounded=0;fontSize=18;" parent="HfRskoNeigtXfyF8NNte-32" edge="1">
                    <mxGeometry width="50" height="50" relative="1" as="geometry">
                        <mxPoint x="380" y="766" as="sourcePoint"/>
                        <mxPoint x="420" y="646" as="targetPoint"/>
                    </mxGeometry>
                </mxCell>
                <mxCell id="HfRskoNeigtXfyF8NNte-37" value="" style="endArrow=classic;html=1;rounded=0;fontSize=18;" parent="HfRskoNeigtXfyF8NNte-32" edge="1">
                    <mxGeometry width="50" height="50" relative="1" as="geometry">
                        <mxPoint x="420" y="646" as="sourcePoint"/>
                        <mxPoint x="580" y="686" as="targetPoint"/>
                    </mxGeometry>
                </mxCell>
                <mxCell id="HfRskoNeigtXfyF8NNte-38" value="&lt;font style=&quot;font-size: 10px;&quot;&gt;`vec w = [[c],[d]]`&lt;/font&gt;" style="edgeLabel;html=1;align=center;verticalAlign=middle;resizable=0;points=[];fontSize=18;labelBackgroundColor=none;" parent="HfRskoNeigtXfyF8NNte-37" vertex="1" connectable="0">
                    <mxGeometry x="-0.1074" y="-1" relative="1" as="geometry">
                        <mxPoint x="9" y="-19" as="offset"/>
                    </mxGeometry>
                </mxCell>
                <mxCell id="HfRskoNeigtXfyF8NNte-39" value="" style="endArrow=classic;html=1;rounded=0;fontSize=18;" parent="HfRskoNeigtXfyF8NNte-32" edge="1">
                    <mxGeometry width="50" height="50" relative="1" as="geometry">
                        <mxPoint x="379" y="766" as="sourcePoint"/>
                        <mxPoint x="580" y="686" as="targetPoint"/>
                    </mxGeometry>
                </mxCell>
                <mxCell id="HfRskoNeigtXfyF8NNte-40" value="&lt;font color=&quot;#ffffff&quot; style=&quot;font-size: 10px;&quot;&gt;`vec m = [[a+c],[b+d]]`&lt;/font&gt;" style="edgeLabel;html=1;align=center;verticalAlign=middle;resizable=0;points=[];fontSize=12;fontColor=#82B366;labelBackgroundColor=none;" parent="HfRskoNeigtXfyF8NNte-39" vertex="1" connectable="0">
                    <mxGeometry x="0.6395" relative="1" as="geometry">
                        <mxPoint x="26" y="16" as="offset"/>
                    </mxGeometry>
                </mxCell>
                <mxCell id="HfRskoNeigtXfyF8NNte-47" value="线性组合" parent="0"/>
                <mxCell id="HfRskoNeigtXfyF8NNte-48" value="" style="endArrow=classic;html=1;rounded=0;fontSize=12;fillColor=#fff2cc;strokeColor=#d6b656;" parent="HfRskoNeigtXfyF8NNte-47" edge="1">
                    <mxGeometry width="50" height="50" relative="1" as="geometry">
                        <mxPoint x="380" y="766" as="sourcePoint"/>
                        <mxPoint x="500" y="846" as="targetPoint"/>
                    </mxGeometry>
                </mxCell>
                <mxCell id="HfRskoNeigtXfyF8NNte-49" value="&lt;font style=&quot;font-size: 10px;&quot;&gt;`3hat(i) + (-2)hat(j)`&lt;/font&gt;" style="edgeLabel;html=1;align=center;verticalAlign=middle;resizable=0;points=[];fontSize=12;labelBackgroundColor=none;" parent="HfRskoNeigtXfyF8NNte-48" vertex="1" connectable="0">
                    <mxGeometry x="0.2722" relative="1" as="geometry">
                        <mxPoint x="-36" y="9" as="offset"/>
                    </mxGeometry>
                </mxCell>
                <mxCell id="HfRskoNeigtXfyF8NNte-50" value="" style="endArrow=classic;html=1;rounded=0;fontSize=12;fillColor=#f8cecc;strokeColor=#b85450;" parent="HfRskoNeigtXfyF8NNte-47" edge="1">
                    <mxGeometry x="-1" y="-30" width="50" height="50" relative="1" as="geometry">
                        <mxPoint x="500" y="766" as="sourcePoint"/>
                        <mxPoint x="500" y="846" as="targetPoint"/>
                        <mxPoint as="offset"/>
                    </mxGeometry>
                </mxCell>
                <mxCell id="HfRskoNeigtXfyF8NNte-51" value="&lt;font style=&quot;font-size: 10px;&quot; color=&quot;#ff6666&quot;&gt;`-2hat(j)`&lt;/font&gt;" style="edgeLabel;html=1;align=center;verticalAlign=middle;resizable=0;points=[];fontSize=12;labelBackgroundColor=none;" parent="HfRskoNeigtXfyF8NNte-50" vertex="1" connectable="0">
                    <mxGeometry x="0.2722" relative="1" as="geometry">
                        <mxPoint x="10" y="-21" as="offset"/>
                    </mxGeometry>
                </mxCell>
                <mxCell id="HfRskoNeigtXfyF8NNte-52" value="" style="endArrow=classic;html=1;rounded=0;fontSize=12;fillColor=#f8cecc;strokeColor=#b85450;" parent="HfRskoNeigtXfyF8NNte-47" edge="1">
                    <mxGeometry x="-1" y="-30" width="50" height="50" relative="1" as="geometry">
                        <mxPoint x="380" y="766" as="sourcePoint"/>
                        <mxPoint x="380" y="726" as="targetPoint"/>
                        <mxPoint as="offset"/>
                    </mxGeometry>
                </mxCell>
                <mxCell id="HfRskoNeigtXfyF8NNte-53" value="&lt;font style=&quot;font-size: 10px;&quot;&gt;`hat(j)`&lt;/font&gt;" style="edgeLabel;html=1;align=center;verticalAlign=middle;resizable=0;points=[];fontSize=12;" parent="HfRskoNeigtXfyF8NNte-52" vertex="1" connectable="0">
                    <mxGeometry x="0.2722" relative="1" as="geometry">
                        <mxPoint x="-7" y="5" as="offset"/>
                    </mxGeometry>
                </mxCell>
                <mxCell id="HfRskoNeigtXfyF8NNte-54" value="" style="endArrow=classic;html=1;rounded=0;fontSize=12;fillColor=#d5e8d4;strokeColor=#82b366;" parent="HfRskoNeigtXfyF8NNte-47" edge="1">
                    <mxGeometry width="50" height="50" relative="1" as="geometry">
                        <mxPoint x="380" y="766" as="sourcePoint"/>
                        <mxPoint x="500" y="766" as="targetPoint"/>
                    </mxGeometry>
                </mxCell>
                <mxCell id="HfRskoNeigtXfyF8NNte-55" value="&lt;font style=&quot;font-size: 10px;&quot; color=&quot;#82b366&quot;&gt;`3hat(i)`&lt;/font&gt;" style="edgeLabel;html=1;align=center;verticalAlign=middle;resizable=0;points=[];fontSize=12;" parent="HfRskoNeigtXfyF8NNte-54" vertex="1" connectable="0">
                    <mxGeometry x="0.2722" relative="1" as="geometry">
                        <mxPoint x="-5" y="-10" as="offset"/>
                    </mxGeometry>
                </mxCell>
                <mxCell id="HfRskoNeigtXfyF8NNte-56" value="" style="endArrow=classic;html=1;rounded=0;fontSize=12;fillColor=#d5e8d4;strokeColor=#82B366;textOpacity=10;labelBorderColor=none;fontColor=default;opacity=50;" parent="HfRskoNeigtXfyF8NNte-47" edge="1">
                    <mxGeometry width="50" height="50" relative="1" as="geometry">
                        <mxPoint x="380" y="766" as="sourcePoint"/>
                        <mxPoint x="420" y="766" as="targetPoint"/>
                    </mxGeometry>
                </mxCell>
                <mxCell id="HfRskoNeigtXfyF8NNte-57" value="`hat(i)`" style="edgeLabel;html=1;align=center;verticalAlign=middle;resizable=0;points=[];fontSize=12;" parent="HfRskoNeigtXfyF8NNte-56" vertex="1" connectable="0">
                    <mxGeometry x="0.2722" relative="1" as="geometry">
                        <mxPoint x="-5" y="1" as="offset"/>
                    </mxGeometry>
                </mxCell>
                <mxCell id="HfRskoNeigtXfyF8NNte-59" value="&lt;font style=&quot;font-size: 12px;&quot;&gt;&lt;b&gt;`hat(i)与hat(j)是坐标系xy的基向量`&lt;/b&gt;&lt;/font&gt;" style="text;html=1;strokeColor=none;fillColor=none;align=center;verticalAlign=middle;whiteSpace=wrap;rounded=0;labelBackgroundColor=none;fontSize=10;fontColor=#FFFFFF;" parent="HfRskoNeigtXfyF8NNte-47" vertex="1">
                    <mxGeometry x="150" y="586" width="140" height="20" as="geometry"/>
                </mxCell>
                <mxCell id="HfRskoNeigtXfyF8NNte-60" value="`a vec(v) + b vec(w) 称作vec(v)与vec(w)的线性组合`" style="text;html=1;strokeColor=none;fillColor=none;align=center;verticalAlign=middle;whiteSpace=wrap;rounded=0;labelBackgroundColor=none;fontSize=12;fontColor=#FFFFFF;" parent="HfRskoNeigtXfyF8NNte-47" vertex="1">
                    <mxGeometry x="140" y="626" width="180" height="30" as="geometry"/>
                </mxCell>
                <mxCell id="HfRskoNeigtXfyF8NNte-65" style="rounded=0;orthogonalLoop=1;jettySize=auto;html=1;labelBorderColor=none;strokeColor=#FFFFFF;fontSize=12;fontColor=#FFFFFF;entryX=0;entryY=0.5;entryDx=0;entryDy=0;" parent="HfRskoNeigtXfyF8NNte-47" source="HfRskoNeigtXfyF8NNte-63" target="HfRskoNeigtXfyF8NNte-64" edge="1">
                    <mxGeometry relative="1" as="geometry"/>
                </mxCell>
                <mxCell id="HfRskoNeigtXfyF8NNte-66" value="线性组合&lt;br&gt;" style="edgeLabel;html=1;align=center;verticalAlign=middle;resizable=0;points=[];fontSize=12;fontColor=#FFFFFF;" parent="HfRskoNeigtXfyF8NNte-65" vertex="1" connectable="0">
                    <mxGeometry x="-0.093" y="-1" relative="1" as="geometry">
                        <mxPoint x="23" y="2" as="offset"/>
                    </mxGeometry>
                </mxCell>
                <mxCell id="HfRskoNeigtXfyF8NNte-68" style="rounded=0;orthogonalLoop=1;jettySize=auto;html=1;labelBorderColor=none;strokeColor=#FFFFFF;fontSize=12;fontColor=#FFFFFF;exitX=0.5;exitY=1;exitDx=0;exitDy=0;" parent="HfRskoNeigtXfyF8NNte-47" source="HfRskoNeigtXfyF8NNte-80" target="HfRskoNeigtXfyF8NNte-83" edge="1">
                    <mxGeometry relative="1" as="geometry">
                        <mxPoint x="-363" y="295" as="targetPoint"/>
                    </mxGeometry>
                </mxCell>
                <mxCell id="HfRskoNeigtXfyF8NNte-76" style="edgeStyle=none;rounded=0;orthogonalLoop=1;jettySize=auto;html=1;labelBorderColor=none;strokeColor=#FFFFFF;fontSize=6;fontColor=#FFFFFF;" parent="HfRskoNeigtXfyF8NNte-47" source="HfRskoNeigtXfyF8NNte-63" target="HfRskoNeigtXfyF8NNte-75" edge="1">
                    <mxGeometry relative="1" as="geometry"/>
                </mxCell>
                <mxCell id="HfRskoNeigtXfyF8NNte-86" style="edgeStyle=orthogonalEdgeStyle;rounded=0;orthogonalLoop=1;jettySize=auto;html=1;labelBorderColor=none;strokeColor=#FFFFFF;fontSize=12;fontColor=#FFFFFF;curved=1;entryX=0;entryY=0.5;entryDx=0;entryDy=0;" parent="HfRskoNeigtXfyF8NNte-47" source="HfRskoNeigtXfyF8NNte-63" target="HfRskoNeigtXfyF8NNte-83" edge="1">
                    <mxGeometry relative="1" as="geometry">
                        <Array as="points">
                            <mxPoint x="-332" y="330"/>
                            <mxPoint x="-332" y="330"/>
                        </Array>
                    </mxGeometry>
                </mxCell>
                <mxCell id="HfRskoNeigtXfyF8NNte-87" value="特化" style="edgeLabel;html=1;align=center;verticalAlign=middle;resizable=0;points=[];fontSize=12;fontColor=#FFFFFF;" parent="HfRskoNeigtXfyF8NNte-86" vertex="1" connectable="0">
                    <mxGeometry x="0.2978" relative="1" as="geometry">
                        <mxPoint x="-42" y="-9" as="offset"/>
                    </mxGeometry>
                </mxCell>
                <mxCell id="HfRskoNeigtXfyF8NNte-93" style="edgeStyle=none;rounded=0;orthogonalLoop=1;jettySize=auto;html=1;labelBorderColor=none;strokeColor=#FFFFFF;fontSize=12;fontColor=#FFFFFF;" parent="HfRskoNeigtXfyF8NNte-47" source="HfRskoNeigtXfyF8NNte-63" target="HfRskoNeigtXfyF8NNte-92" edge="1">
                    <mxGeometry relative="1" as="geometry"/>
                </mxCell>
                <mxCell id="HfRskoNeigtXfyF8NNte-105" style="edgeStyle=none;rounded=0;orthogonalLoop=1;jettySize=auto;html=1;labelBorderColor=none;strokeColor=#FFFFFF;fontSize=12;fontColor=#FFFFFF;entryX=0.5;entryY=0;entryDx=0;entryDy=0;" parent="HfRskoNeigtXfyF8NNte-47" source="HfRskoNeigtXfyF8NNte-63" target="HfRskoNeigtXfyF8NNte-106" edge="1">
                    <mxGeometry relative="1" as="geometry">
                        <mxPoint x="-595.370373196072" y="398.1481255425347" as="targetPoint"/>
                    </mxGeometry>
                </mxCell>
                <mxCell id="HfRskoNeigtXfyF8NNte-109" value="实例化" style="edgeLabel;html=1;align=center;verticalAlign=middle;resizable=0;points=[];fontSize=12;fontColor=#FFFFFF;" parent="HfRskoNeigtXfyF8NNte-105" vertex="1" connectable="0">
                    <mxGeometry x="-0.3585" y="-1" relative="1" as="geometry">
                        <mxPoint as="offset"/>
                    </mxGeometry>
                </mxCell>
                <mxCell id="HfRskoNeigtXfyF8NNte-147" style="edgeStyle=none;rounded=0;orthogonalLoop=1;jettySize=auto;html=1;entryX=0.75;entryY=1;entryDx=0;entryDy=0;labelBorderColor=none;strokeColor=#FFFFFF;fontSize=13;fontColor=#FFFFFF;" parent="HfRskoNeigtXfyF8NNte-47" source="HfRskoNeigtXfyF8NNte-63" target="HfRskoNeigtXfyF8NNte-146" edge="1">
                    <mxGeometry relative="1" as="geometry"/>
                </mxCell>
                <mxCell id="HfRskoNeigtXfyF8NNte-152" value="加法" style="edgeLabel;html=1;align=center;verticalAlign=middle;resizable=0;points=[];fontSize=13;fontColor=#FFFFFF;" parent="HfRskoNeigtXfyF8NNte-147" vertex="1" connectable="0">
                    <mxGeometry x="-0.3107" relative="1" as="geometry">
                        <mxPoint as="offset"/>
                    </mxGeometry>
                </mxCell>
                <mxCell id="HfRskoNeigtXfyF8NNte-149" style="edgeStyle=none;rounded=0;orthogonalLoop=1;jettySize=auto;html=1;entryX=1;entryY=0.5;entryDx=0;entryDy=0;labelBorderColor=none;strokeColor=#FFFFFF;fontSize=13;fontColor=#FFFFFF;" parent="HfRskoNeigtXfyF8NNte-47" source="HfRskoNeigtXfyF8NNte-63" target="HfRskoNeigtXfyF8NNte-148" edge="1">
                    <mxGeometry relative="1" as="geometry"/>
                </mxCell>
                <mxCell id="HfRskoNeigtXfyF8NNte-153" value="缩放" style="edgeLabel;html=1;align=center;verticalAlign=middle;resizable=0;points=[];fontSize=13;fontColor=#FFFFFF;" parent="HfRskoNeigtXfyF8NNte-149" vertex="1" connectable="0">
                    <mxGeometry x="-0.1381" y="1" relative="1" as="geometry">
                        <mxPoint as="offset"/>
                    </mxGeometry>
                </mxCell>
                <mxCell id="HfRskoNeigtXfyF8NNte-151" style="edgeStyle=none;rounded=0;orthogonalLoop=1;jettySize=auto;html=1;entryX=1;entryY=0.5;entryDx=0;entryDy=0;labelBorderColor=none;strokeColor=#FFFFFF;fontSize=13;fontColor=#FFFFFF;" parent="HfRskoNeigtXfyF8NNte-47" source="HfRskoNeigtXfyF8NNte-63" target="HfRskoNeigtXfyF8NNte-150" edge="1">
                    <mxGeometry relative="1" as="geometry"/>
                </mxCell>
                <mxCell id="HfRskoNeigtXfyF8NNte-154" value="投影" style="edgeLabel;html=1;align=center;verticalAlign=middle;resizable=0;points=[];fontSize=13;fontColor=#FFFFFF;" parent="HfRskoNeigtXfyF8NNte-151" vertex="1" connectable="0">
                    <mxGeometry x="-0.2137" y="-2" relative="1" as="geometry">
                        <mxPoint as="offset"/>
                    </mxGeometry>
                </mxCell>
                <mxCell id="HfRskoNeigtXfyF8NNte-63" value="向量" style="ellipse;whiteSpace=wrap;html=1;labelBackgroundColor=none;fontSize=12;fontColor=#FFFFFF;" parent="HfRskoNeigtXfyF8NNte-47" vertex="1">
                    <mxGeometry x="-566" y="320" width="80" height="40" as="geometry"/>
                </mxCell>
                <mxCell id="HfRskoNeigtXfyF8NNte-64" value="空间" style="ellipse;whiteSpace=wrap;html=1;labelBackgroundColor=none;fontSize=12;fontColor=#FFFFFF;" parent="HfRskoNeigtXfyF8NNte-47" vertex="1">
                    <mxGeometry x="-389" y="227" width="80" height="50" as="geometry"/>
                </mxCell>
                <mxCell id="HfRskoNeigtXfyF8NNte-69" style="rounded=0;orthogonalLoop=1;jettySize=auto;html=1;entryX=1;entryY=0.5;entryDx=0;entryDy=0;labelBorderColor=none;strokeColor=#FFFFFF;fontSize=12;fontColor=#FFFFFF;exitX=0.297;exitY=0.054;exitDx=0;exitDy=0;exitPerimeter=0;" parent="HfRskoNeigtXfyF8NNte-47" source="HfRskoNeigtXfyF8NNte-83" target="HfRskoNeigtXfyF8NNte-64" edge="1">
                    <mxGeometry relative="1" as="geometry">
                        <mxPoint x="-416" y="340" as="sourcePoint"/>
                    </mxGeometry>
                </mxCell>
                <mxCell id="HfRskoNeigtXfyF8NNte-70" value="线性组合" style="edgeLabel;html=1;align=center;verticalAlign=middle;resizable=0;points=[];fontSize=12;fontColor=#FFFFFF;" parent="HfRskoNeigtXfyF8NNte-69" vertex="1" connectable="0">
                    <mxGeometry x="-0.2255" relative="1" as="geometry">
                        <mxPoint x="-13" y="9" as="offset"/>
                    </mxGeometry>
                </mxCell>
                <mxCell id="HfRskoNeigtXfyF8NNte-78" style="edgeStyle=none;rounded=0;orthogonalLoop=1;jettySize=auto;html=1;labelBorderColor=none;strokeColor=#FFFFFF;fontSize=6;fontColor=#FFFFFF;" parent="HfRskoNeigtXfyF8NNte-47" source="HfRskoNeigtXfyF8NNte-75" target="HfRskoNeigtXfyF8NNte-77" edge="1">
                    <mxGeometry relative="1" as="geometry"/>
                </mxCell>
                <mxCell id="HfRskoNeigtXfyF8NNte-79" value="是" style="edgeLabel;html=1;align=center;verticalAlign=middle;resizable=0;points=[];fontSize=6;fontColor=#FFFFFF;" parent="HfRskoNeigtXfyF8NNte-78" vertex="1" connectable="0">
                    <mxGeometry x="-0.2252" y="1" relative="1" as="geometry">
                        <mxPoint as="offset"/>
                    </mxGeometry>
                </mxCell>
                <mxCell id="HfRskoNeigtXfyF8NNte-81" value="否" style="edgeStyle=none;rounded=0;orthogonalLoop=1;jettySize=auto;html=1;labelBorderColor=none;strokeColor=#FFFFFF;fontSize=6;fontColor=#FFFFFF;" parent="HfRskoNeigtXfyF8NNte-47" source="HfRskoNeigtXfyF8NNte-75" target="HfRskoNeigtXfyF8NNte-80" edge="1">
                    <mxGeometry relative="1" as="geometry"/>
                </mxCell>
                <mxCell id="HfRskoNeigtXfyF8NNte-75" value="&lt;span style=&quot;&quot;&gt;&lt;font style=&quot;font-size: 6px;&quot;&gt;一组向量中，至少有一个向量可以表示为其它向量的线性组合&lt;/font&gt;&lt;/span&gt;" style="rhombus;whiteSpace=wrap;html=1;labelBackgroundColor=none;fontSize=10;fontColor=#FFFFFF;" parent="HfRskoNeigtXfyF8NNte-47" vertex="1">
                    <mxGeometry x="-562" y="173" width="76" height="77" as="geometry"/>
                </mxCell>
                <mxCell id="HfRskoNeigtXfyF8NNte-77" value="&lt;span style=&quot;font-size: 12px;&quot;&gt;线性相关&lt;/span&gt;" style="rounded=1;whiteSpace=wrap;html=1;labelBackgroundColor=none;fontSize=6;fontColor=#FFFFFF;" parent="HfRskoNeigtXfyF8NNte-47" vertex="1">
                    <mxGeometry x="-563" y="75" width="74" height="42" as="geometry"/>
                </mxCell>
                <mxCell id="HfRskoNeigtXfyF8NNte-80" value="&lt;span style=&quot;font-size: 12px;&quot;&gt;线性无关&lt;/span&gt;" style="rounded=1;whiteSpace=wrap;html=1;labelBackgroundColor=none;fontSize=6;fontColor=#FFFFFF;" parent="HfRskoNeigtXfyF8NNte-47" vertex="1">
                    <mxGeometry x="-188" y="187.5" width="74" height="42" as="geometry"/>
                </mxCell>
                <mxCell id="HfRskoNeigtXfyF8NNte-84" style="edgeStyle=orthogonalEdgeStyle;rounded=0;orthogonalLoop=1;jettySize=auto;html=1;labelBorderColor=none;strokeColor=#FFFFFF;fontSize=6;fontColor=#FFFFFF;curved=1;entryX=1;entryY=0.5;entryDx=0;entryDy=0;" parent="HfRskoNeigtXfyF8NNte-47" source="HfRskoNeigtXfyF8NNte-83" target="HfRskoNeigtXfyF8NNte-63" edge="1">
                    <mxGeometry relative="1" as="geometry">
                        <mxPoint x="-481" y="327" as="targetPoint"/>
                        <Array as="points">
                            <mxPoint x="-154" y="357"/>
                            <mxPoint x="-465" y="357"/>
                            <mxPoint x="-465" y="340"/>
                        </Array>
                    </mxGeometry>
                </mxCell>
                <mxCell id="HfRskoNeigtXfyF8NNte-85" value="&lt;font style=&quot;font-size: 12px;&quot;&gt;线性组合&lt;/font&gt;" style="edgeLabel;html=1;align=center;verticalAlign=middle;resizable=0;points=[];fontSize=6;fontColor=#FFFFFF;" parent="HfRskoNeigtXfyF8NNte-84" vertex="1" connectable="0">
                    <mxGeometry x="-0.1086" relative="1" as="geometry">
                        <mxPoint x="-33" y="-9" as="offset"/>
                    </mxGeometry>
                </mxCell>
                <mxCell id="HfRskoNeigtXfyF8NNte-108" style="edgeStyle=none;rounded=0;orthogonalLoop=1;jettySize=auto;html=1;labelBorderColor=none;strokeColor=#FFFFFF;fontSize=12;fontColor=#FFFFFF;" parent="HfRskoNeigtXfyF8NNte-47" source="HfRskoNeigtXfyF8NNte-83" target="HfRskoNeigtXfyF8NNte-107" edge="1">
                    <mxGeometry relative="1" as="geometry"/>
                </mxCell>
                <mxCell id="HfRskoNeigtXfyF8NNte-110" value="实例化" style="edgeLabel;html=1;align=center;verticalAlign=middle;resizable=0;points=[];fontSize=12;fontColor=#FFFFFF;" parent="HfRskoNeigtXfyF8NNte-108" vertex="1" connectable="0">
                    <mxGeometry x="-0.4422" y="1" relative="1" as="geometry">
                        <mxPoint as="offset"/>
                    </mxGeometry>
                </mxCell>
                <mxCell id="HfRskoNeigtXfyF8NNte-83" value="&lt;span style=&quot;font-size: 12px;&quot;&gt;基向量&lt;/span&gt;" style="ellipse;whiteSpace=wrap;html=1;labelBackgroundColor=none;fontSize=6;fontColor=#FFFFFF;" parent="HfRskoNeigtXfyF8NNte-47" vertex="1">
                    <mxGeometry x="-191" y="308.5" width="74" height="43" as="geometry"/>
                </mxCell>
                <mxCell id="HfRskoNeigtXfyF8NNte-95" style="edgeStyle=none;rounded=0;orthogonalLoop=1;jettySize=auto;html=1;labelBorderColor=none;strokeColor=#FFFFFF;fontSize=12;fontColor=#FFFFFF;" parent="HfRskoNeigtXfyF8NNte-47" source="HfRskoNeigtXfyF8NNte-92" target="HfRskoNeigtXfyF8NNte-94" edge="1">
                    <mxGeometry relative="1" as="geometry"/>
                </mxCell>
                <mxCell id="HfRskoNeigtXfyF8NNte-92" value="变换" style="rounded=1;whiteSpace=wrap;html=1;labelBackgroundColor=none;fontSize=12;fontColor=#FFFFFF;" parent="HfRskoNeigtXfyF8NNte-47" vertex="1">
                    <mxGeometry x="-785" y="324.5" width="53" height="27" as="geometry"/>
                </mxCell>
                <mxCell id="HfRskoNeigtXfyF8NNte-97" style="edgeStyle=none;rounded=0;orthogonalLoop=1;jettySize=auto;html=1;entryX=1;entryY=0.5;entryDx=0;entryDy=0;labelBorderColor=none;strokeColor=#FFFFFF;fontSize=12;fontColor=#FFFFFF;" parent="HfRskoNeigtXfyF8NNte-47" source="HfRskoNeigtXfyF8NNte-94" target="HfRskoNeigtXfyF8NNte-96" edge="1">
                    <mxGeometry relative="1" as="geometry"/>
                </mxCell>
                <mxCell id="HfRskoNeigtXfyF8NNte-99" value="否" style="edgeLabel;html=1;align=center;verticalAlign=middle;resizable=0;points=[];fontSize=12;fontColor=#FFFFFF;" parent="HfRskoNeigtXfyF8NNte-97" vertex="1" connectable="0">
                    <mxGeometry x="0.3422" relative="1" as="geometry">
                        <mxPoint x="13" y="9" as="offset"/>
                    </mxGeometry>
                </mxCell>
                <mxCell id="HfRskoNeigtXfyF8NNte-100" style="edgeStyle=none;rounded=0;orthogonalLoop=1;jettySize=auto;html=1;labelBorderColor=none;strokeColor=#FFFFFF;fontSize=12;fontColor=#FFFFFF;" parent="HfRskoNeigtXfyF8NNte-47" source="HfRskoNeigtXfyF8NNte-94" target="HfRskoNeigtXfyF8NNte-98" edge="1">
                    <mxGeometry relative="1" as="geometry"/>
                </mxCell>
                <mxCell id="HfRskoNeigtXfyF8NNte-101" value="是" style="edgeLabel;html=1;align=center;verticalAlign=middle;resizable=0;points=[];fontSize=12;fontColor=#FFFFFF;" parent="HfRskoNeigtXfyF8NNte-100" vertex="1" connectable="0">
                    <mxGeometry x="-0.5368" y="-1" relative="1" as="geometry">
                        <mxPoint x="-7" y="3" as="offset"/>
                    </mxGeometry>
                </mxCell>
                <mxCell id="HfRskoNeigtXfyF8NNte-94" value="是否线性" style="rhombus;whiteSpace=wrap;html=1;labelBackgroundColor=none;fontSize=12;fontColor=#FFFFFF;" parent="HfRskoNeigtXfyF8NNte-47" vertex="1">
                    <mxGeometry x="-1150" y="309.5" width="67" height="66" as="geometry"/>
                </mxCell>
                <mxCell id="HfRskoNeigtXfyF8NNte-96" value="&lt;span style=&quot;font-size: 12px;&quot;&gt;非线性变换&lt;/span&gt;" style="rounded=1;whiteSpace=wrap;html=1;labelBackgroundColor=none;fontSize=6;fontColor=#FFFFFF;" parent="HfRskoNeigtXfyF8NNte-47" vertex="1">
                    <mxGeometry x="-1286" y="320" width="74" height="42" as="geometry"/>
                </mxCell>
                <mxCell id="HfRskoNeigtXfyF8NNte-117" style="edgeStyle=none;rounded=0;orthogonalLoop=1;jettySize=auto;html=1;labelBorderColor=none;strokeColor=#FFFFFF;fontSize=12;fontColor=#FFFFFF;entryX=0;entryY=0.5;entryDx=0;entryDy=0;exitX=1.003;exitY=0.506;exitDx=0;exitDy=0;exitPerimeter=0;" parent="HfRskoNeigtXfyF8NNte-47" source="HfRskoNeigtXfyF8NNte-98" target="HfRskoNeigtXfyF8NNte-113" edge="1">
                    <mxGeometry relative="1" as="geometry">
                        <mxPoint x="-301" y="515" as="targetPoint"/>
                    </mxGeometry>
                </mxCell>
                <mxCell id="HfRskoNeigtXfyF8NNte-119" style="edgeStyle=none;rounded=0;orthogonalLoop=1;jettySize=auto;html=1;entryX=0;entryY=0.5;entryDx=0;entryDy=0;labelBorderColor=none;strokeColor=#FFFFFF;fontSize=12;fontColor=#FFFFFF;exitX=0.997;exitY=0.508;exitDx=0;exitDy=0;exitPerimeter=0;" parent="HfRskoNeigtXfyF8NNte-47" source="HfRskoNeigtXfyF8NNte-98" target="HfRskoNeigtXfyF8NNte-115" edge="1">
                    <mxGeometry relative="1" as="geometry"/>
                </mxCell>
                <mxCell id="HfRskoNeigtXfyF8NNte-123" style="edgeStyle=none;rounded=0;orthogonalLoop=1;jettySize=auto;html=1;entryX=0;entryY=0.5;entryDx=0;entryDy=0;labelBorderColor=none;strokeColor=#FFFFFF;fontSize=12;fontColor=#FF6666;exitX=0.99;exitY=0.506;exitDx=0;exitDy=0;exitPerimeter=0;" parent="HfRskoNeigtXfyF8NNte-47" source="HfRskoNeigtXfyF8NNte-98" target="HfRskoNeigtXfyF8NNte-122" edge="1">
                    <mxGeometry relative="1" as="geometry"/>
                </mxCell>
                <mxCell id="HfRskoNeigtXfyF8NNte-124" value="复合线性变换" style="edgeLabel;html=1;align=center;verticalAlign=middle;resizable=0;points=[];fontSize=12;fontColor=#FFFFFF;" parent="HfRskoNeigtXfyF8NNte-123" vertex="1" connectable="0">
                    <mxGeometry x="-0.3547" y="-5" relative="1" as="geometry">
                        <mxPoint x="9" y="1" as="offset"/>
                    </mxGeometry>
                </mxCell>
                <mxCell id="HfRskoNeigtXfyF8NNte-126" style="rounded=0;orthogonalLoop=1;jettySize=auto;html=1;labelBorderColor=none;strokeColor=#FFFFFF;fontSize=12;fontColor=#CC99FF;" parent="HfRskoNeigtXfyF8NNte-47" source="HfRskoNeigtXfyF8NNte-98" target="HfRskoNeigtXfyF8NNte-125" edge="1">
                    <mxGeometry relative="1" as="geometry"/>
                </mxCell>
                <mxCell id="HfRskoNeigtXfyF8NNte-127" value="&lt;font color=&quot;#ffffff&quot;&gt;变化率&lt;/font&gt;" style="edgeLabel;html=1;align=center;verticalAlign=middle;resizable=0;points=[];fontSize=12;fontColor=#CC99FF;" parent="HfRskoNeigtXfyF8NNte-126" vertex="1" connectable="0">
                    <mxGeometry x="-0.1828" y="3" relative="1" as="geometry">
                        <mxPoint x="-7" y="-3" as="offset"/>
                    </mxGeometry>
                </mxCell>
                <mxCell id="HfRskoNeigtXfyF8NNte-130" style="edgeStyle=none;rounded=0;orthogonalLoop=1;jettySize=auto;html=1;entryX=0.5;entryY=0;entryDx=0;entryDy=0;labelBorderColor=none;strokeColor=#FFFFFF;fontSize=13;fontColor=#FFFFFF;" parent="HfRskoNeigtXfyF8NNte-47" source="HfRskoNeigtXfyF8NNte-98" target="HfRskoNeigtXfyF8NNte-129" edge="1">
                    <mxGeometry relative="1" as="geometry"/>
                </mxCell>
                <mxCell id="HfRskoNeigtXfyF8NNte-131" value="逆变换 inverse transformation" style="edgeLabel;html=1;align=center;verticalAlign=middle;resizable=0;points=[];fontSize=13;fontColor=#FFFFFF;" parent="HfRskoNeigtXfyF8NNte-130" vertex="1" connectable="0">
                    <mxGeometry x="-0.1648" y="4" relative="1" as="geometry">
                        <mxPoint x="-38" y="16" as="offset"/>
                    </mxGeometry>
                </mxCell>
                <mxCell id="HfRskoNeigtXfyF8NNte-133" style="edgeStyle=none;rounded=0;orthogonalLoop=1;jettySize=auto;html=1;entryX=1;entryY=0.5;entryDx=0;entryDy=0;labelBorderColor=none;strokeColor=#FFFFFF;fontSize=13;fontColor=#FFFFFF;" parent="HfRskoNeigtXfyF8NNte-47" source="HfRskoNeigtXfyF8NNte-98" target="HfRskoNeigtXfyF8NNte-132" edge="1">
                    <mxGeometry relative="1" as="geometry"/>
                </mxCell>
                <mxCell id="HfRskoNeigtXfyF8NNte-134" value="恒等变换" style="edgeLabel;html=1;align=center;verticalAlign=middle;resizable=0;points=[];fontSize=13;fontColor=#FFFFFF;" parent="HfRskoNeigtXfyF8NNte-133" vertex="1" connectable="0">
                    <mxGeometry x="-0.1296" y="-2" relative="1" as="geometry">
                        <mxPoint as="offset"/>
                    </mxGeometry>
                </mxCell>
                <mxCell id="HfRskoNeigtXfyF8NNte-136" style="edgeStyle=none;rounded=0;orthogonalLoop=1;jettySize=auto;html=1;entryX=1;entryY=0.5;entryDx=0;entryDy=0;labelBorderColor=none;strokeColor=#FFFFFF;fontSize=13;fontColor=#FFFFFF;" parent="HfRskoNeigtXfyF8NNte-47" source="HfRskoNeigtXfyF8NNte-98" target="HfRskoNeigtXfyF8NNte-135" edge="1">
                    <mxGeometry relative="1" as="geometry"/>
                </mxCell>
                <mxCell id="HfRskoNeigtXfyF8NNte-137" value="变换后空间维数" style="edgeLabel;html=1;align=center;verticalAlign=middle;resizable=0;points=[];fontSize=13;fontColor=#FFFFFF;" parent="HfRskoNeigtXfyF8NNte-136" vertex="1" connectable="0">
                    <mxGeometry x="0.0571" y="1" relative="1" as="geometry">
                        <mxPoint as="offset"/>
                    </mxGeometry>
                </mxCell>
                <mxCell id="HfRskoNeigtXfyF8NNte-139" style="edgeStyle=none;rounded=0;orthogonalLoop=1;jettySize=auto;html=1;entryX=1;entryY=0.5;entryDx=0;entryDy=0;labelBorderColor=none;strokeColor=#FFFFFF;fontSize=13;fontColor=#FFFFFF;" parent="HfRskoNeigtXfyF8NNte-47" source="HfRskoNeigtXfyF8NNte-98" target="HfRskoNeigtXfyF8NNte-138" edge="1">
                    <mxGeometry relative="1" as="geometry"/>
                </mxCell>
                <mxCell id="HfRskoNeigtXfyF8NNte-140" value="变换后的空间" style="edgeLabel;html=1;align=center;verticalAlign=middle;resizable=0;points=[];fontSize=13;fontColor=#FFFFFF;" parent="HfRskoNeigtXfyF8NNte-139" vertex="1" connectable="0">
                    <mxGeometry x="-0.0989" relative="1" as="geometry">
                        <mxPoint x="-39" y="-39" as="offset"/>
                    </mxGeometry>
                </mxCell>
                <mxCell id="HfRskoNeigtXfyF8NNte-155" style="edgeStyle=none;rounded=0;orthogonalLoop=1;jettySize=auto;html=1;entryX=0.5;entryY=1;entryDx=0;entryDy=0;labelBorderColor=none;strokeColor=#FFFFFF;fontSize=13;fontColor=#FFFFFF;" parent="HfRskoNeigtXfyF8NNte-47" source="HfRskoNeigtXfyF8NNte-98" target="HfRskoNeigtXfyF8NNte-150" edge="1">
                    <mxGeometry relative="1" as="geometry"/>
                </mxCell>
                <mxCell id="HfRskoNeigtXfyF8NNte-156" style="edgeStyle=none;rounded=0;orthogonalLoop=1;jettySize=auto;html=1;labelBorderColor=none;strokeColor=#FFFFFF;fontSize=13;fontColor=#FFFFFF;" parent="HfRskoNeigtXfyF8NNte-47" source="HfRskoNeigtXfyF8NNte-98" target="HfRskoNeigtXfyF8NNte-148" edge="1">
                    <mxGeometry relative="1" as="geometry"/>
                </mxCell>
                <mxCell id="HfRskoNeigtXfyF8NNte-160" style="edgeStyle=none;rounded=0;orthogonalLoop=1;jettySize=auto;html=1;entryX=0.5;entryY=1;entryDx=0;entryDy=0;labelBorderColor=none;strokeColor=#FFFFFF;fontSize=13;fontColor=#FFFFFF;" parent="HfRskoNeigtXfyF8NNte-47" source="HfRskoNeigtXfyF8NNte-98" target="HfRskoNeigtXfyF8NNte-157" edge="1">
                    <mxGeometry relative="1" as="geometry"/>
                </mxCell>
                <mxCell id="HfRskoNeigtXfyF8NNte-98" value="&lt;span style=&quot;font-size: 12px;&quot;&gt;线性变换&lt;/span&gt;" style="rounded=1;whiteSpace=wrap;html=1;labelBackgroundColor=none;fontSize=6;fontColor=#FFFFFF;" parent="HfRskoNeigtXfyF8NNte-47" vertex="1">
                    <mxGeometry x="-1146" y="495" width="74" height="478" as="geometry"/>
                </mxCell>
                <mxCell id="HfRskoNeigtXfyF8NNte-116" style="edgeStyle=none;rounded=0;orthogonalLoop=1;jettySize=auto;html=1;labelBorderColor=none;strokeColor=#FFFFFF;fontSize=12;fontColor=#FFFFFF;entryX=0.25;entryY=0;entryDx=0;entryDy=0;" parent="HfRskoNeigtXfyF8NNte-47" source="HfRskoNeigtXfyF8NNte-106" target="HfRskoNeigtXfyF8NNte-115" edge="1">
                    <mxGeometry relative="1" as="geometry"/>
                </mxCell>
                <mxCell id="HfRskoNeigtXfyF8NNte-120" value="向量相对变换" style="edgeLabel;html=1;align=center;verticalAlign=middle;resizable=0;points=[];fontSize=12;fontColor=#FFFFFF;" parent="HfRskoNeigtXfyF8NNte-116" vertex="1" connectable="0">
                    <mxGeometry x="-0.4528" relative="1" as="geometry">
                        <mxPoint as="offset"/>
                    </mxGeometry>
                </mxCell>
                <mxCell id="HfRskoNeigtXfyF8NNte-106" value="&lt;span style=&quot;font-size: 12px;&quot;&gt;`vec(v) = [[x],[y]]= x vec(i) + y vec(j)`&lt;br&gt;&lt;br&gt;`rarr [[1],[2]] = 1[[1],[0]] + 2[[0],[1]] = [[1*1+2*0],[0*0+2*1]]`&lt;br&gt;&lt;/span&gt;" style="rounded=1;whiteSpace=wrap;html=1;labelBackgroundColor=none;fontSize=6;fontColor=#FFFFFF;" parent="HfRskoNeigtXfyF8NNte-47" vertex="1">
                    <mxGeometry x="-630" y="415" width="249.59" height="100.5" as="geometry"/>
                </mxCell>
                <mxCell id="HfRskoNeigtXfyF8NNte-111" style="edgeStyle=none;rounded=0;orthogonalLoop=1;jettySize=auto;html=1;labelBorderColor=none;strokeColor=#FFFFFF;fontSize=12;fontColor=#FFFFFF;" parent="HfRskoNeigtXfyF8NNte-47" source="HfRskoNeigtXfyF8NNte-107" target="HfRskoNeigtXfyF8NNte-106" edge="1">
                    <mxGeometry relative="1" as="geometry"/>
                </mxCell>
                <mxCell id="HfRskoNeigtXfyF8NNte-112" value="线性组合" style="edgeLabel;html=1;align=center;verticalAlign=middle;resizable=0;points=[];fontSize=12;fontColor=#FFFFFF;" parent="HfRskoNeigtXfyF8NNte-111" vertex="1" connectable="0">
                    <mxGeometry x="-0.1909" y="-1" relative="1" as="geometry">
                        <mxPoint as="offset"/>
                    </mxGeometry>
                </mxCell>
                <mxCell id="HfRskoNeigtXfyF8NNte-114" value="变换基" style="edgeStyle=none;rounded=0;orthogonalLoop=1;jettySize=auto;html=1;labelBorderColor=none;strokeColor=#FFFFFF;fontSize=12;fontColor=#FFFFFF;entryX=0.75;entryY=0;entryDx=0;entryDy=0;" parent="HfRskoNeigtXfyF8NNte-47" source="HfRskoNeigtXfyF8NNte-107" target="HfRskoNeigtXfyF8NNte-113" edge="1">
                    <mxGeometry x="-0.2784" y="-3" relative="1" as="geometry">
                        <mxPoint as="offset"/>
                    </mxGeometry>
                </mxCell>
                <mxCell id="HfRskoNeigtXfyF8NNte-107" value="&lt;span style=&quot;font-size: 12px;&quot;&gt;`[vec(i),vec(j)] rarr [[1,0],[0,1]]`&lt;/span&gt;" style="rounded=1;whiteSpace=wrap;html=1;labelBackgroundColor=none;fontSize=6;fontColor=#FFFFFF;" parent="HfRskoNeigtXfyF8NNte-47" vertex="1">
                    <mxGeometry x="-233" y="429" width="150" height="48" as="geometry"/>
                </mxCell>
                <mxCell id="HfRskoNeigtXfyF8NNte-121" style="edgeStyle=none;rounded=0;orthogonalLoop=1;jettySize=auto;html=1;entryX=0.75;entryY=0;entryDx=0;entryDy=0;labelBorderColor=none;strokeColor=#FFFFFF;fontSize=12;fontColor=#FF6666;" parent="HfRskoNeigtXfyF8NNte-47" source="HfRskoNeigtXfyF8NNte-113" target="HfRskoNeigtXfyF8NNte-115" edge="1">
                    <mxGeometry relative="1" as="geometry"/>
                </mxCell>
                <mxCell id="HfRskoNeigtXfyF8NNte-113" value="&lt;span style=&quot;font-size: 12px;&quot;&gt;`[vec(i'),vec(j')] rarr [[a,b],[c,d]] rarr [[1,3],[2,1]]`&lt;/span&gt;" style="rounded=1;whiteSpace=wrap;html=1;labelBackgroundColor=none;fontSize=6;fontColor=#FFFFFF;" parent="HfRskoNeigtXfyF8NNte-47" vertex="1">
                    <mxGeometry x="-379" y="569" width="296" height="67" as="geometry"/>
                </mxCell>
                <mxCell id="HfRskoNeigtXfyF8NNte-115" value="&lt;span style=&quot;font-size: 12px;&quot;&gt;`vec(v') = x vec(i') + y vec(j') &lt;br&gt;rarr x[[a],[c]] + y [[b],[d]] rarr [[x*a+y*b],[x*c + y*d]]`&lt;br&gt;&lt;br&gt;&lt;font color=&quot;#ff6666&quot;&gt;&lt;b&gt;`[[a,b],[c,d]] [[x],[y]] = x[[a],[c]] + y[[b],[d]] = [[ax+by],[cx+dy]]`&lt;/b&gt;&lt;/font&gt;&lt;br&gt;&lt;br&gt;`rarr [[1,3],[2,1]] [[1],[2]] = 1*[[1],[2]] + 2*[[3],[1]] = [[1*1 + 2*3],[1*2 + 2 *1]] = [[6],[4]]`&lt;br&gt;&lt;/span&gt;" style="rounded=1;whiteSpace=wrap;html=1;labelBackgroundColor=none;fontSize=6;fontColor=#FFFFFF;" parent="HfRskoNeigtXfyF8NNte-47" vertex="1">
                    <mxGeometry x="-644" y="693" width="542" height="148" as="geometry"/>
                </mxCell>
                <mxCell id="HfRskoNeigtXfyF8NNte-122" value="`M_2*M_1 = [[a,b],[c,d]] [[e,f],[g,h]]`&lt;br&gt;&lt;br&gt;&lt;font color=&quot;#ffffff&quot;&gt;`hat(i) = e[[a],[c]] + g[[b],[d]] = [[ea+gb],[ec+gd]]`&lt;/font&gt;&lt;br&gt;&lt;br&gt;&lt;font color=&quot;#ffffff&quot;&gt;`hat(j) = f[[a],[c]] + h[[b],[d]] = [[fa+hb],[fc+hd]]`&lt;/font&gt;&lt;br&gt;&lt;br&gt;&lt;b style=&quot;&quot;&gt;&lt;font color=&quot;#cc99ff&quot;&gt;`M_2* M_1 = [[a,b],[c,d]][[e,f],[g,h]] = [[ea+gb,fa+hb],[ec+gd,fc+hd]]`&lt;/font&gt;&lt;/b&gt;" style="rounded=1;whiteSpace=wrap;html=1;labelBackgroundColor=none;fontSize=12;fontColor=#FF6666;" parent="HfRskoNeigtXfyF8NNte-47" vertex="1">
                    <mxGeometry x="-550" y="940" width="325" height="246" as="geometry"/>
                </mxCell>
                <mxCell id="HfRskoNeigtXfyF8NNte-125" value="&lt;font color=&quot;#ffffff&quot;&gt;&lt;font style=&quot;font-size: 13px;&quot;&gt;&lt;b&gt;行列式 determinant&lt;br&gt;&lt;/b&gt;&lt;/font&gt;&lt;br&gt;变换后的空间大小和变换前空间大小的比值。&lt;br&gt;&lt;br&gt;`det([[a,b],[c,d]]) = ad -bc `&lt;br&gt;&lt;br&gt;意义比计算方法更重要&lt;br&gt;&lt;br&gt;`det(M_1M_2) = det(M_1)det(M_2)`&lt;/font&gt;&lt;font color=&quot;#ffffff&quot;&gt;&lt;br&gt;&lt;/font&gt;" style="rounded=1;whiteSpace=wrap;html=1;labelBackgroundColor=none;fontSize=12;fontColor=#CC99FF;" parent="HfRskoNeigtXfyF8NNte-47" vertex="1">
                    <mxGeometry x="-1601" y="609" width="263" height="185.5" as="geometry"/>
                </mxCell>
                <mxCell id="HfRskoNeigtXfyF8NNte-129" value="&lt;font color=&quot;#ffffff&quot;&gt;&lt;font style=&quot;font-size: 13px;&quot;&gt;&lt;b&gt;逆矩阵&lt;br&gt;&lt;/b&gt;&lt;/font&gt;&lt;br&gt;某一变换的反向变换是改变换的逆变换，表示为逆矩阵。&lt;br&gt;&lt;br&gt;’当det(A) ne 0，A^-1*A = I `&lt;br&gt;&lt;br&gt;&lt;/font&gt;&lt;font color=&quot;#ffffff&quot;&gt;使用举例：求解线性方程组。&lt;br&gt;&lt;/font&gt;" style="rounded=1;whiteSpace=wrap;html=1;labelBackgroundColor=none;fontSize=12;fontColor=#CC99FF;" parent="HfRskoNeigtXfyF8NNte-47" vertex="1">
                    <mxGeometry x="-1523" y="1081" width="300" height="143" as="geometry"/>
                </mxCell>
                <mxCell id="HfRskoNeigtXfyF8NNte-132" value="&lt;font color=&quot;#ffffff&quot;&gt;&lt;font style=&quot;font-size: 13px;&quot;&gt;&lt;b&gt;&amp;nbsp;单位矩阵I&lt;br&gt;&lt;/b&gt;&lt;/font&gt;&lt;br&gt;作用到空间上，任意点都不发生变化。&lt;br&gt;&lt;br&gt;`[[1,0],[0,1]]`&lt;/font&gt;&lt;font color=&quot;#ffffff&quot;&gt;&lt;br&gt;&lt;/font&gt;" style="rounded=1;whiteSpace=wrap;html=1;labelBackgroundColor=none;fontSize=12;fontColor=#CC99FF;" parent="HfRskoNeigtXfyF8NNte-47" vertex="1">
                    <mxGeometry x="-1603" y="836" width="224" height="110" as="geometry"/>
                </mxCell>
                <mxCell id="HfRskoNeigtXfyF8NNte-142" style="edgeStyle=none;rounded=0;orthogonalLoop=1;jettySize=auto;html=1;labelBorderColor=none;strokeColor=#FFFFFF;fontSize=13;fontColor=#FFFFFF;" parent="HfRskoNeigtXfyF8NNte-47" source="HfRskoNeigtXfyF8NNte-135" target="HfRskoNeigtXfyF8NNte-141" edge="1">
                    <mxGeometry relative="1" as="geometry"/>
                </mxCell>
                <mxCell id="HfRskoNeigtXfyF8NNte-143" value="非满秩" style="edgeLabel;html=1;align=center;verticalAlign=middle;resizable=0;points=[];fontSize=13;fontColor=#FFFFFF;" parent="HfRskoNeigtXfyF8NNte-142" vertex="1" connectable="0">
                    <mxGeometry x="0.1246" y="-1" relative="1" as="geometry">
                        <mxPoint as="offset"/>
                    </mxGeometry>
                </mxCell>
                <mxCell id="HfRskoNeigtXfyF8NNte-135" value="&lt;font color=&quot;#ffffff&quot;&gt;&lt;font style=&quot;font-size: 13px;&quot;&gt;&lt;b&gt;秩&lt;br&gt;&lt;/b&gt;&lt;/font&gt;&lt;br&gt;表示变换后列空间维数。&lt;br&gt;&lt;/font&gt;&lt;font color=&quot;#ffffff&quot;&gt;&lt;br&gt;满秩&lt;br&gt;&lt;br&gt;列空间的维数与输入空间的维数相等。&lt;br&gt;&lt;/font&gt;" style="rounded=1;whiteSpace=wrap;html=1;labelBackgroundColor=none;fontSize=12;fontColor=#CC99FF;" parent="HfRskoNeigtXfyF8NNte-47" vertex="1">
                    <mxGeometry x="-1606" y="440" width="257" height="126" as="geometry"/>
                </mxCell>
                <mxCell id="HfRskoNeigtXfyF8NNte-138" value="&lt;font color=&quot;#ffffff&quot;&gt;&lt;font style=&quot;font-size: 13px;&quot;&gt;&lt;b&gt;列空间&lt;br&gt;&lt;/b&gt;&lt;/font&gt;&lt;br&gt;&lt;/font&gt;&lt;font color=&quot;#ffffff&quot;&gt;基变换之后表现为列向量的形式，它们的线性组合构成的空间称为列空间。&lt;br&gt;&lt;/font&gt;" style="rounded=1;whiteSpace=wrap;html=1;labelBackgroundColor=none;fontSize=12;fontColor=#CC99FF;" parent="HfRskoNeigtXfyF8NNte-47" vertex="1">
                    <mxGeometry x="-1607" y="293" width="258" height="99" as="geometry"/>
                </mxCell>
                <mxCell id="HfRskoNeigtXfyF8NNte-141" value="&lt;font color=&quot;#ffffff&quot;&gt;&lt;span style=&quot;font-size: 13px;&quot;&gt;&lt;b&gt;零空间（Null space）&lt;br&gt;核 kernel&lt;br&gt;&lt;br&gt;变换后一些向量落在零向量上，这些向量所构成的空间称为零空间。&lt;br&gt;&lt;br&gt;对于 `A vec(x) = [[0],[0]]` 零空间是该方程组所有可能的解。&lt;br&gt;&lt;/b&gt;&lt;/span&gt;&lt;/font&gt;" style="rounded=1;whiteSpace=wrap;html=1;labelBackgroundColor=none;fontSize=12;fontColor=#CC99FF;" parent="HfRskoNeigtXfyF8NNte-47" vertex="1">
                    <mxGeometry x="-2046" y="431" width="316" height="152" as="geometry"/>
                </mxCell>
                <mxCell id="HfRskoNeigtXfyF8NNte-146" value="&lt;span style=&quot;font-size: 12px;&quot;&gt;向量加法&lt;/span&gt;" style="rounded=1;whiteSpace=wrap;html=1;labelBackgroundColor=none;fontSize=6;fontColor=#FFFFFF;" parent="HfRskoNeigtXfyF8NNte-47" vertex="1">
                    <mxGeometry x="-798" y="-119" width="74" height="42" as="geometry"/>
                </mxCell>
                <mxCell id="HfRskoNeigtXfyF8NNte-148" value="&lt;span style=&quot;font-size: 12px;&quot;&gt;数量积&lt;/span&gt;" style="rounded=1;whiteSpace=wrap;html=1;labelBackgroundColor=none;fontSize=6;fontColor=#FFFFFF;" parent="HfRskoNeigtXfyF8NNte-47" vertex="1">
                    <mxGeometry x="-939" y="-77" width="74" height="42" as="geometry"/>
                </mxCell>
                <mxCell id="HfRskoNeigtXfyF8NNte-150" value="&lt;span style=&quot;font-size: 12px;&quot;&gt;点积&lt;/span&gt;" style="rounded=1;whiteSpace=wrap;html=1;labelBackgroundColor=none;fontSize=6;fontColor=#FFFFFF;" parent="HfRskoNeigtXfyF8NNte-47" vertex="1">
                    <mxGeometry x="-1052" y="39" width="74" height="42" as="geometry"/>
                </mxCell>
                <mxCell id="HfRskoNeigtXfyF8NNte-157" value="&lt;span style=&quot;font-size: 12px;&quot;&gt;叉积&lt;/span&gt;" style="rounded=1;whiteSpace=wrap;html=1;labelBackgroundColor=none;fontSize=6;fontColor=#FFFFFF;" parent="HfRskoNeigtXfyF8NNte-47" vertex="1">
                    <mxGeometry x="-937" y="210" width="74" height="42" as="geometry"/>
                </mxCell>
                <mxCell id="HfRskoNeigtXfyF8NNte-158" style="edgeStyle=none;rounded=0;orthogonalLoop=1;jettySize=auto;html=1;entryX=1;entryY=0.5;entryDx=0;entryDy=0;labelBorderColor=none;strokeColor=#FFFFFF;fontSize=13;fontColor=#FFFFFF;exitX=0.013;exitY=0.283;exitDx=0;exitDy=0;exitPerimeter=0;" parent="HfRskoNeigtXfyF8NNte-47" source="HfRskoNeigtXfyF8NNte-63" target="HfRskoNeigtXfyF8NNte-157" edge="1">
                    <mxGeometry relative="1" as="geometry">
                        <mxPoint x="-541.1231327699834" y="334.4369973991252" as="sourcePoint"/>
                        <mxPoint x="-968" y="70" as="targetPoint"/>
                    </mxGeometry>
                </mxCell>
                <mxCell id="HfRskoNeigtXfyF8NNte-159" value="面积" style="edgeLabel;html=1;align=center;verticalAlign=middle;resizable=0;points=[];fontSize=13;fontColor=#FFFFFF;" parent="HfRskoNeigtXfyF8NNte-158" vertex="1" connectable="0">
                    <mxGeometry x="-0.2137" y="-2" relative="1" as="geometry">
                        <mxPoint as="offset"/>
                    </mxGeometry>
                </mxCell>
            </root>
        </mxGraphModel>
    </diagram>
</mxfile>